<mxfile host="Electron" agent="Mozilla/5.0 (Windows NT 10.0; Win64; x64) AppleWebKit/537.36 (KHTML, like Gecko) draw.io/26.0.9 Chrome/128.0.6613.186 Electron/32.2.5 Safari/537.36" version="26.0.9">
  <diagram name="Page-1" id="vCYNJaHGlupoG_Cp8uDu">
    <mxGraphModel dx="1925" dy="1618" grid="1" gridSize="10" guides="1" tooltips="1" connect="1" arrows="1" fold="1" page="1" pageScale="1" pageWidth="850" pageHeight="1100" math="0" shadow="0">
      <root>
        <mxCell id="0" />
        <mxCell id="1" parent="0" />
        <mxCell id="OFbxckXXqnCaUIWFsDce-1" value="" style="rounded=1;whiteSpace=wrap;html=1;" vertex="1" parent="1">
          <mxGeometry x="89" y="-43" width="530" height="238" as="geometry" />
        </mxCell>
        <mxCell id="OFbxckXXqnCaUIWFsDce-2" value="" style="rounded=1;whiteSpace=wrap;html=1;" vertex="1" parent="1">
          <mxGeometry x="399" y="-5" width="190" height="170" as="geometry" />
        </mxCell>
        <mxCell id="OFbxckXXqnCaUIWFsDce-3" value="" style="rounded=1;whiteSpace=wrap;html=1;" vertex="1" parent="1">
          <mxGeometry x="-21" y="-285" width="200" height="170" as="geometry" />
        </mxCell>
        <mxCell id="OFbxckXXqnCaUIWFsDce-4" value="&lt;h1 style=&quot;box-sizing: inherit; margin: 0px; font-family: Roboto, system-ui, sans-serif; font-weight: 500; line-height: 1.333; letter-spacing: 0px; background-color: rgb(16, 21, 27);&quot; class=&quot;MuiTypography-root MuiTypography-h3 css-5qrq0a&quot;&gt;&lt;font style=&quot;font-size: 14px;&quot;&gt;Agente Cloud&lt;/font&gt;&lt;/h1&gt;" style="text;html=1;align=center;verticalAlign=middle;whiteSpace=wrap;rounded=0;" vertex="1" parent="1">
          <mxGeometry x="429" y="3" width="130" height="20" as="geometry" />
        </mxCell>
        <mxCell id="OFbxckXXqnCaUIWFsDce-6" value="&lt;font style=&quot;font-size: 14px;&quot;&gt;Repositorio del Proyecto&lt;/font&gt;" style="text;html=1;align=center;verticalAlign=middle;whiteSpace=wrap;rounded=0;" vertex="1" parent="1">
          <mxGeometry x="-11" y="-320" width="170" height="40" as="geometry" />
        </mxCell>
        <mxCell id="OFbxckXXqnCaUIWFsDce-8" style="edgeStyle=orthogonalEdgeStyle;rounded=0;orthogonalLoop=1;jettySize=auto;html=1;exitX=0.5;exitY=1;exitDx=0;exitDy=0;" edge="1" parent="1" source="OFbxckXXqnCaUIWFsDce-4" target="OFbxckXXqnCaUIWFsDce-4">
          <mxGeometry relative="1" as="geometry" />
        </mxCell>
        <mxCell id="OFbxckXXqnCaUIWFsDce-12" value="" style="rounded=1;whiteSpace=wrap;html=1;" vertex="1" parent="1">
          <mxGeometry x="-1" y="-245" width="160" height="110" as="geometry" />
        </mxCell>
        <mxCell id="OFbxckXXqnCaUIWFsDce-13" value="&lt;font style=&quot;font-size: 14px;&quot;&gt;Rama Principal&lt;/font&gt;" style="text;html=1;align=center;verticalAlign=middle;whiteSpace=wrap;rounded=0;" vertex="1" parent="1">
          <mxGeometry x="-31" y="-280" width="170" height="40" as="geometry" />
        </mxCell>
        <mxCell id="OFbxckXXqnCaUIWFsDce-15" value="" style="whiteSpace=wrap;html=1;shape=mxgraph.basic.document" vertex="1" parent="1">
          <mxGeometry x="89" y="-215" width="50" height="50" as="geometry" />
        </mxCell>
        <mxCell id="OFbxckXXqnCaUIWFsDce-16" value="&lt;font style=&quot;font-size: 11px;&quot;&gt;Jenkinsfile&lt;/font&gt;" style="text;html=1;align=center;verticalAlign=middle;whiteSpace=wrap;rounded=0;" vertex="1" parent="1">
          <mxGeometry x="29" y="-245" width="170" height="40" as="geometry" />
        </mxCell>
        <mxCell id="OFbxckXXqnCaUIWFsDce-17" value="&lt;font style=&quot;font-size: 14px;&quot;&gt;Servidor Jenkins&lt;/font&gt;" style="text;html=1;align=center;verticalAlign=middle;whiteSpace=wrap;rounded=0;" vertex="1" parent="1">
          <mxGeometry x="69" y="-75" width="170" height="40" as="geometry" />
        </mxCell>
        <mxCell id="OFbxckXXqnCaUIWFsDce-18" value="" style="rounded=0;whiteSpace=wrap;html=1;" vertex="1" parent="1">
          <mxGeometry x="119" y="-5" width="180" height="100" as="geometry" />
        </mxCell>
        <mxCell id="OFbxckXXqnCaUIWFsDce-19" value="&lt;font style=&quot;font-size: 14px;&quot;&gt;Job &quot;ecommerce-api&quot;&lt;/font&gt;" style="text;html=1;align=center;verticalAlign=middle;whiteSpace=wrap;rounded=0;" vertex="1" parent="1">
          <mxGeometry x="119" y="-37" width="150" height="40" as="geometry" />
        </mxCell>
        <mxCell id="OFbxckXXqnCaUIWFsDce-7" value="&lt;font style=&quot;font-size: 14px;&quot;&gt;Pipeline&lt;/font&gt;" style="text;html=1;align=center;verticalAlign=middle;whiteSpace=wrap;rounded=0;backgroud-color=black" vertex="1" parent="1">
          <mxGeometry x="149" y="13" width="60" height="30" as="geometry" />
        </mxCell>
        <mxCell id="OFbxckXXqnCaUIWFsDce-10" value="" style="rounded=1;whiteSpace=wrap;html=1;strokeWidth=2;fillWeight=4;hachureGap=8;hachureAngle=45;fillColor=#1ba1e2;sketch=1;" vertex="1" parent="1">
          <mxGeometry x="154" y="43" width="110" height="32" as="geometry" />
        </mxCell>
        <mxCell id="OFbxckXXqnCaUIWFsDce-22" style="edgeStyle=orthogonalEdgeStyle;rounded=0;orthogonalLoop=1;jettySize=auto;html=1;entryX=1;entryY=0.744;entryDx=0;entryDy=0;entryPerimeter=0;" edge="1" parent="1" source="OFbxckXXqnCaUIWFsDce-10" target="OFbxckXXqnCaUIWFsDce-15">
          <mxGeometry relative="1" as="geometry">
            <Array as="points">
              <mxPoint x="339" y="59" />
              <mxPoint x="339" y="-178" />
            </Array>
          </mxGeometry>
        </mxCell>
        <mxCell id="OFbxckXXqnCaUIWFsDce-26" value="&lt;font style=&quot;font-size: 14px;&quot;&gt;Obtiene&lt;/font&gt;&lt;div&gt;&lt;span style=&quot;font-size: 14px; background-color: light-dark(#ffffff, var(--ge-dark-color, #121212)); color: light-dark(rgb(0, 0, 0), rgb(255, 255, 255));&quot;&gt;y&lt;/span&gt;&lt;/div&gt;&lt;div&gt;&lt;span style=&quot;font-size: 14px; background-color: light-dark(#ffffff, var(--ge-dark-color, #121212)); color: light-dark(rgb(0, 0, 0), rgb(255, 255, 255));&quot;&gt;ejecuta&lt;/span&gt;&lt;br&gt;&lt;/div&gt;" style="edgeLabel;html=1;align=center;verticalAlign=middle;resizable=0;points=[];" vertex="1" connectable="0" parent="OFbxckXXqnCaUIWFsDce-22">
          <mxGeometry x="-0.1527" y="1" relative="1" as="geometry">
            <mxPoint y="-16" as="offset" />
          </mxGeometry>
        </mxCell>
        <mxCell id="OFbxckXXqnCaUIWFsDce-23" style="edgeStyle=orthogonalEdgeStyle;rounded=0;orthogonalLoop=1;jettySize=auto;html=1;entryX=0.25;entryY=1;entryDx=0;entryDy=0;exitX=0;exitY=0.5;exitDx=0;exitDy=0;" edge="1" parent="1" source="OFbxckXXqnCaUIWFsDce-18" target="OFbxckXXqnCaUIWFsDce-12">
          <mxGeometry relative="1" as="geometry">
            <mxPoint x="49" y="45" as="sourcePoint" />
          </mxGeometry>
        </mxCell>
        <mxCell id="OFbxckXXqnCaUIWFsDce-24" value="&lt;font style=&quot;font-size: 14px;&quot;&gt;Pendiente&lt;/font&gt;&lt;div&gt;&lt;font size=&quot;3&quot;&gt;de&lt;/font&gt;&lt;/div&gt;&lt;div&gt;&lt;font size=&quot;3&quot;&gt;cambios&lt;/font&gt;&lt;/div&gt;" style="edgeLabel;html=1;align=center;verticalAlign=middle;resizable=0;points=[];" vertex="1" connectable="0" parent="OFbxckXXqnCaUIWFsDce-23">
          <mxGeometry x="0.1822" y="-2" relative="1" as="geometry">
            <mxPoint as="offset" />
          </mxGeometry>
        </mxCell>
        <mxCell id="OFbxckXXqnCaUIWFsDce-27" value="&lt;font style=&quot;font-size: 14px;&quot;&gt;1&lt;/font&gt;" style="ellipse;whiteSpace=wrap;html=1;aspect=fixed;fillColor=light-dark(#FFFFFF,#000033);" vertex="1" parent="1">
          <mxGeometry x="-37" y="-43" width="36" height="36" as="geometry" />
        </mxCell>
        <mxCell id="OFbxckXXqnCaUIWFsDce-28" value="&lt;font style=&quot;font-size: 14px;&quot;&gt;2&lt;/font&gt;" style="ellipse;whiteSpace=wrap;html=1;aspect=fixed;fillColor=light-dark(#FFFFFF,#000033);" vertex="1" parent="1">
          <mxGeometry x="263" y="-125" width="36" height="36" as="geometry" />
        </mxCell>
        <mxCell id="OFbxckXXqnCaUIWFsDce-31" value="" style="whiteSpace=wrap;html=1;shape=mxgraph.basic.document" vertex="1" parent="1">
          <mxGeometry x="9" y="-217.5" width="60" height="25" as="geometry" />
        </mxCell>
        <mxCell id="OFbxckXXqnCaUIWFsDce-32" value="" style="whiteSpace=wrap;html=1;shape=mxgraph.basic.document" vertex="1" parent="1">
          <mxGeometry x="9" y="-175" width="60" height="25" as="geometry" />
        </mxCell>
        <mxCell id="OFbxckXXqnCaUIWFsDce-33" value="&lt;span style=&quot;font-size: 11px;&quot;&gt;newman.json&lt;/span&gt;" style="text;html=1;align=center;verticalAlign=middle;whiteSpace=wrap;rounded=0;" vertex="1" parent="1">
          <mxGeometry x="9" y="-235" width="60" height="10" as="geometry" />
        </mxCell>
        <mxCell id="OFbxckXXqnCaUIWFsDce-34" value="&lt;span style=&quot;font-size: 11px;&quot;&gt;jmeter.jmx&lt;/span&gt;" style="text;html=1;align=center;verticalAlign=middle;whiteSpace=wrap;rounded=0;" vertex="1" parent="1">
          <mxGeometry x="9" y="-188.5" width="60" height="10" as="geometry" />
        </mxCell>
        <mxCell id="OFbxckXXqnCaUIWFsDce-36" value="" style="rounded=1;whiteSpace=wrap;html=1;" vertex="1" parent="1">
          <mxGeometry x="43" y="937" width="237" height="173" as="geometry" />
        </mxCell>
        <mxCell id="OFbxckXXqnCaUIWFsDce-38" value="" style="rounded=1;whiteSpace=wrap;html=1;" vertex="1" parent="1">
          <mxGeometry x="-70" y="640" width="210" height="225" as="geometry" />
        </mxCell>
        <mxCell id="OFbxckXXqnCaUIWFsDce-39" value="&lt;h1 style=&quot;box-sizing: inherit; margin: 0px; font-family: Roboto, system-ui, sans-serif; font-weight: 500; line-height: 1.333; letter-spacing: 0px; background-color: rgb(16, 21, 27);&quot; class=&quot;MuiTypography-root MuiTypography-h3 css-5qrq0a&quot;&gt;&lt;br&gt;&lt;/h1&gt;" style="text;html=1;align=center;verticalAlign=middle;whiteSpace=wrap;rounded=0;fillColor=none;strokeColor=none;" vertex="1" parent="1">
          <mxGeometry x="310" y="993" width="170" height="20" as="geometry" />
        </mxCell>
        <mxCell id="OFbxckXXqnCaUIWFsDce-40" value="&lt;font style=&quot;font-size: 14px;&quot;&gt;Repositorio del Proyecto&lt;/font&gt;" style="text;html=1;align=center;verticalAlign=middle;whiteSpace=wrap;rounded=0;" vertex="1" parent="1">
          <mxGeometry x="-70" y="610" width="170" height="40" as="geometry" />
        </mxCell>
        <mxCell id="OFbxckXXqnCaUIWFsDce-41" style="edgeStyle=orthogonalEdgeStyle;rounded=0;orthogonalLoop=1;jettySize=auto;html=1;exitX=0.5;exitY=1;exitDx=0;exitDy=0;" edge="1" parent="1" source="OFbxckXXqnCaUIWFsDce-39" target="OFbxckXXqnCaUIWFsDce-39">
          <mxGeometry relative="1" as="geometry" />
        </mxCell>
        <mxCell id="OFbxckXXqnCaUIWFsDce-42" value="" style="rounded=1;whiteSpace=wrap;html=1;" vertex="1" parent="1">
          <mxGeometry x="-60" y="670" width="190" height="175" as="geometry" />
        </mxCell>
        <mxCell id="OFbxckXXqnCaUIWFsDce-43" value="&lt;font style=&quot;font-size: 14px;&quot;&gt;Rama Principal&lt;/font&gt;" style="text;html=1;align=center;verticalAlign=middle;whiteSpace=wrap;rounded=0;" vertex="1" parent="1">
          <mxGeometry x="-72" y="640" width="170" height="40" as="geometry" />
        </mxCell>
        <mxCell id="OFbxckXXqnCaUIWFsDce-44" value="" style="whiteSpace=wrap;html=1;shape=mxgraph.basic.document" vertex="1" parent="1">
          <mxGeometry x="43" y="786" width="50" height="50" as="geometry" />
        </mxCell>
        <mxCell id="OFbxckXXqnCaUIWFsDce-45" value="&lt;font style=&quot;font-size: 11px;&quot;&gt;Jenkinsfile&lt;/font&gt;" style="text;html=1;align=center;verticalAlign=middle;whiteSpace=wrap;rounded=0;" vertex="1" parent="1">
          <mxGeometry x="-17" y="756" width="170" height="40" as="geometry" />
        </mxCell>
        <mxCell id="OFbxckXXqnCaUIWFsDce-46" value="&lt;font style=&quot;font-size: 14px;&quot;&gt;Servidor Jenkins&lt;/font&gt;" style="text;html=1;align=center;verticalAlign=middle;whiteSpace=wrap;rounded=0;" vertex="1" parent="1">
          <mxGeometry x="23" y="905" width="170" height="40" as="geometry" />
        </mxCell>
        <mxCell id="OFbxckXXqnCaUIWFsDce-47" value="" style="rounded=0;whiteSpace=wrap;html=1;" vertex="1" parent="1">
          <mxGeometry x="73" y="975" width="180" height="100" as="geometry" />
        </mxCell>
        <mxCell id="OFbxckXXqnCaUIWFsDce-48" value="&lt;font style=&quot;font-size: 14px;&quot;&gt;Job &quot;ecommerce-api&quot;&lt;/font&gt;" style="text;html=1;align=center;verticalAlign=middle;whiteSpace=wrap;rounded=0;" vertex="1" parent="1">
          <mxGeometry x="73" y="943" width="150" height="40" as="geometry" />
        </mxCell>
        <mxCell id="OFbxckXXqnCaUIWFsDce-49" value="&lt;font style=&quot;font-size: 14px;&quot;&gt;Pipeline&lt;/font&gt;" style="text;html=1;align=center;verticalAlign=middle;whiteSpace=wrap;rounded=0;backgroud-color=black" vertex="1" parent="1">
          <mxGeometry x="103" y="993" width="60" height="30" as="geometry" />
        </mxCell>
        <mxCell id="OFbxckXXqnCaUIWFsDce-50" value="" style="rounded=1;whiteSpace=wrap;html=1;strokeWidth=2;fillWeight=4;hachureGap=8;hachureAngle=45;fillColor=#1ba1e2;sketch=1;" vertex="1" parent="1">
          <mxGeometry x="108" y="1023" width="110" height="32" as="geometry" />
        </mxCell>
        <mxCell id="OFbxckXXqnCaUIWFsDce-51" style="edgeStyle=orthogonalEdgeStyle;rounded=0;orthogonalLoop=1;jettySize=auto;html=1;entryX=0.984;entryY=0.886;entryDx=0;entryDy=0;entryPerimeter=0;" edge="1" parent="1" source="OFbxckXXqnCaUIWFsDce-50" target="OFbxckXXqnCaUIWFsDce-44">
          <mxGeometry relative="1" as="geometry">
            <Array as="points">
              <mxPoint x="293" y="1039" />
              <mxPoint x="293" y="830" />
            </Array>
          </mxGeometry>
        </mxCell>
        <mxCell id="OFbxckXXqnCaUIWFsDce-52" value="&lt;font style=&quot;font-size: 14px;&quot;&gt;Obtiene&lt;/font&gt;&lt;div&gt;&lt;span style=&quot;background-color: light-dark(#ffffff, var(--ge-dark-color, #121212)); color: light-dark(rgb(0, 0, 0), rgb(255, 255, 255));&quot;&gt;&lt;font size=&quot;3&quot;&gt;y&lt;/font&gt;&lt;/span&gt;&lt;/div&gt;&lt;div&gt;&lt;span style=&quot;background-color: light-dark(#ffffff, var(--ge-dark-color, #121212)); color: light-dark(rgb(0, 0, 0), rgb(255, 255, 255));&quot;&gt;&lt;font size=&quot;3&quot;&gt;ejecuta&lt;/font&gt;&lt;/span&gt;&lt;br&gt;&lt;/div&gt;" style="edgeLabel;html=1;align=center;verticalAlign=middle;resizable=0;points=[];" vertex="1" connectable="0" parent="OFbxckXXqnCaUIWFsDce-51">
          <mxGeometry x="-0.1527" y="1" relative="1" as="geometry">
            <mxPoint y="-16" as="offset" />
          </mxGeometry>
        </mxCell>
        <mxCell id="OFbxckXXqnCaUIWFsDce-53" style="edgeStyle=orthogonalEdgeStyle;rounded=0;orthogonalLoop=1;jettySize=auto;html=1;entryX=0.25;entryY=1;entryDx=0;entryDy=0;exitX=0;exitY=0.5;exitDx=0;exitDy=0;" edge="1" parent="1" source="OFbxckXXqnCaUIWFsDce-47" target="OFbxckXXqnCaUIWFsDce-42">
          <mxGeometry relative="1" as="geometry">
            <mxPoint x="3" y="1025" as="sourcePoint" />
          </mxGeometry>
        </mxCell>
        <mxCell id="OFbxckXXqnCaUIWFsDce-54" value="&lt;font style=&quot;font-size: 14px;&quot;&gt;Pendiente&lt;/font&gt;&lt;div&gt;&lt;font size=&quot;3&quot;&gt;de&lt;/font&gt;&lt;/div&gt;&lt;div&gt;&lt;font size=&quot;3&quot;&gt;cambios&lt;/font&gt;&lt;/div&gt;" style="edgeLabel;html=1;align=center;verticalAlign=middle;resizable=0;points=[];" vertex="1" connectable="0" parent="OFbxckXXqnCaUIWFsDce-53">
          <mxGeometry x="0.1822" y="-2" relative="1" as="geometry">
            <mxPoint as="offset" />
          </mxGeometry>
        </mxCell>
        <mxCell id="OFbxckXXqnCaUIWFsDce-55" value="&lt;font style=&quot;font-size: 14px;&quot;&gt;1&lt;/font&gt;" style="ellipse;whiteSpace=wrap;html=1;aspect=fixed;fillColor=light-dark(#FFFFFF,#000033);" vertex="1" parent="1">
          <mxGeometry x="-83" y="937" width="36" height="36" as="geometry" />
        </mxCell>
        <mxCell id="OFbxckXXqnCaUIWFsDce-56" value="&lt;font style=&quot;font-size: 14px;&quot;&gt;2&lt;/font&gt;" style="ellipse;whiteSpace=wrap;html=1;aspect=fixed;fillColor=light-dark(#FFFFFF,#000033);" vertex="1" parent="1">
          <mxGeometry x="220" y="869" width="36" height="36" as="geometry" />
        </mxCell>
        <mxCell id="OFbxckXXqnCaUIWFsDce-57" value="" style="whiteSpace=wrap;html=1;shape=mxgraph.basic.document" vertex="1" parent="1">
          <mxGeometry x="-46" y="762.5" width="60" height="25" as="geometry" />
        </mxCell>
        <mxCell id="OFbxckXXqnCaUIWFsDce-58" value="" style="whiteSpace=wrap;html=1;shape=mxgraph.basic.document" vertex="1" parent="1">
          <mxGeometry x="-46" y="805" width="60" height="25" as="geometry" />
        </mxCell>
        <mxCell id="OFbxckXXqnCaUIWFsDce-59" value="&lt;span style=&quot;font-size: 11px;&quot;&gt;newman.json&lt;/span&gt;" style="text;html=1;align=center;verticalAlign=middle;whiteSpace=wrap;rounded=0;" vertex="1" parent="1">
          <mxGeometry x="-46" y="745" width="60" height="10" as="geometry" />
        </mxCell>
        <mxCell id="OFbxckXXqnCaUIWFsDce-60" value="&lt;span style=&quot;font-size: 11px;&quot;&gt;jmeter.jmx&lt;/span&gt;" style="text;html=1;align=center;verticalAlign=middle;whiteSpace=wrap;rounded=0;" vertex="1" parent="1">
          <mxGeometry x="-46" y="791.5" width="60" height="10" as="geometry" />
        </mxCell>
        <mxCell id="OFbxckXXqnCaUIWFsDce-61" value="" style="rounded=1;whiteSpace=wrap;html=1;" vertex="1" parent="1">
          <mxGeometry x="181.5" y="680" width="138.5" height="49.25" as="geometry" />
        </mxCell>
        <mxCell id="OFbxckXXqnCaUIWFsDce-62" value="&lt;h1 style=&quot;box-sizing: inherit; margin: 0px; font-family: Roboto, system-ui, sans-serif; font-weight: 500; line-height: 1.333; letter-spacing: 0px; background-color: rgb(16, 21, 27);&quot; class=&quot;MuiTypography-root MuiTypography-h3 css-5qrq0a&quot;&gt;&lt;br&gt;&lt;/h1&gt;" style="text;html=1;align=center;verticalAlign=middle;whiteSpace=wrap;rounded=0;" vertex="1" parent="1">
          <mxGeometry x="153" y="650" width="180" height="20" as="geometry" />
        </mxCell>
        <mxCell id="OFbxckXXqnCaUIWFsDce-63" value="" style="rounded=1;whiteSpace=wrap;html=1;" vertex="1" parent="1">
          <mxGeometry x="341" y="530" width="190" height="90" as="geometry" />
        </mxCell>
        <mxCell id="OFbxckXXqnCaUIWFsDce-64" value="&lt;h1 style=&quot;box-sizing: inherit; margin: 0px; font-family: Roboto, system-ui, sans-serif; font-weight: 500; line-height: 1.333; letter-spacing: 0px; background-color: rgb(16, 21, 27);&quot; class=&quot;MuiTypography-root MuiTypography-h3 css-5qrq0a&quot;&gt;&lt;br&gt;&lt;/h1&gt;" style="text;html=1;align=center;verticalAlign=middle;whiteSpace=wrap;rounded=0;" vertex="1" parent="1">
          <mxGeometry x="335" y="500" width="180" height="20" as="geometry" />
        </mxCell>
        <mxCell id="OFbxckXXqnCaUIWFsDce-67" style="edgeStyle=orthogonalEdgeStyle;rounded=0;orthogonalLoop=1;jettySize=auto;html=1;entryX=0.25;entryY=1;entryDx=0;entryDy=0;exitX=0.5;exitY=1;exitDx=0;exitDy=0;" edge="1" parent="1" source="OFbxckXXqnCaUIWFsDce-50" target="OFbxckXXqnCaUIWFsDce-72">
          <mxGeometry relative="1" as="geometry">
            <mxPoint x="661" y="1194.5" as="sourcePoint" />
            <mxPoint x="580" y="855.5" as="targetPoint" />
            <Array as="points">
              <mxPoint x="163" y="1194" />
              <mxPoint x="362" y="1194" />
              <mxPoint x="362" y="1110" />
            </Array>
          </mxGeometry>
        </mxCell>
        <mxCell id="OFbxckXXqnCaUIWFsDce-70" value="&lt;font size=&quot;3&quot;&gt;Asignar como directorio&lt;/font&gt;&lt;div&gt;&lt;font size=&quot;3&quot;&gt;de ejecucion del pipeline&lt;/font&gt;&lt;/div&gt;" style="edgeLabel;html=1;align=center;verticalAlign=middle;resizable=0;points=[];" vertex="1" connectable="0" parent="OFbxckXXqnCaUIWFsDce-67">
          <mxGeometry x="-0.0468" y="-2" relative="1" as="geometry">
            <mxPoint x="39" y="14" as="offset" />
          </mxGeometry>
        </mxCell>
        <mxCell id="OFbxckXXqnCaUIWFsDce-68" value="&lt;font style=&quot;font-size: 14px;&quot;&gt;3&lt;/font&gt;" style="ellipse;whiteSpace=wrap;html=1;aspect=fixed;fillColor=light-dark(#FFFFFF,#000033);" vertex="1" parent="1">
          <mxGeometry x="130" y="1210" width="36" height="36" as="geometry" />
        </mxCell>
        <mxCell id="OFbxckXXqnCaUIWFsDce-72" value="" style="rounded=1;whiteSpace=wrap;html=1;" vertex="1" parent="1">
          <mxGeometry x="330" y="1020" width="126" height="90" as="geometry" />
        </mxCell>
        <mxCell id="OFbxckXXqnCaUIWFsDce-73" value="" style="rounded=1;whiteSpace=wrap;html=1;" vertex="1" parent="1">
          <mxGeometry x="220" y="1303" width="160" height="97" as="geometry" />
        </mxCell>
        <mxCell id="OFbxckXXqnCaUIWFsDce-78" style="edgeStyle=orthogonalEdgeStyle;rounded=0;orthogonalLoop=1;jettySize=auto;html=1;entryX=1;entryY=0.5;entryDx=0;entryDy=0;" edge="1" parent="1" source="OFbxckXXqnCaUIWFsDce-37" target="OFbxckXXqnCaUIWFsDce-76">
          <mxGeometry relative="1" as="geometry">
            <Array as="points">
              <mxPoint x="420" y="1355" />
            </Array>
          </mxGeometry>
        </mxCell>
        <mxCell id="OFbxckXXqnCaUIWFsDce-79" value="&lt;font size=&quot;3&quot;&gt;Descargar y&lt;/font&gt;&lt;div&gt;&lt;font size=&quot;3&quot;&gt;crear un contenedor&lt;/font&gt;&lt;/div&gt;" style="edgeLabel;html=1;align=left;verticalAlign=middle;resizable=0;points=[];" vertex="1" connectable="0" parent="OFbxckXXqnCaUIWFsDce-78">
          <mxGeometry x="-0.2157" y="4" relative="1" as="geometry">
            <mxPoint x="-34" y="26" as="offset" />
          </mxGeometry>
        </mxCell>
        <mxCell id="OFbxckXXqnCaUIWFsDce-81" style="edgeStyle=orthogonalEdgeStyle;rounded=0;orthogonalLoop=1;jettySize=auto;html=1;entryX=0.5;entryY=1;entryDx=0;entryDy=0;exitX=0.635;exitY=-0.015;exitDx=0;exitDy=0;exitPerimeter=0;" edge="1" parent="1" source="OFbxckXXqnCaUIWFsDce-37" target="OFbxckXXqnCaUIWFsDce-61">
          <mxGeometry relative="1" as="geometry">
            <mxPoint x="430" y="1030" as="sourcePoint" />
            <mxPoint x="390" y="700" as="targetPoint" />
            <Array as="points">
              <mxPoint x="407" y="770" />
              <mxPoint x="251" y="770" />
            </Array>
          </mxGeometry>
        </mxCell>
        <mxCell id="OFbxckXXqnCaUIWFsDce-85" value="&lt;span style=&quot;font-size: 14px;&quot;&gt;Copiar proyecto y&lt;/span&gt;&lt;div&gt;&lt;span style=&quot;font-size: 14px;&quot;&gt;levantar el&amp;nbsp;&lt;/span&gt;&lt;/div&gt;&lt;div&gt;&lt;span style=&quot;font-size: 14px;&quot;&gt;docker compose&lt;/span&gt;&lt;/div&gt;&lt;div&gt;&lt;span style=&quot;font-size: 14px;&quot;&gt;de staging&lt;/span&gt;&lt;/div&gt;" style="edgeLabel;html=1;align=center;verticalAlign=middle;resizable=0;points=[];" vertex="1" connectable="0" parent="OFbxckXXqnCaUIWFsDce-81">
          <mxGeometry x="-0.0424" y="1" relative="1" as="geometry">
            <mxPoint x="34" y="14" as="offset" />
          </mxGeometry>
        </mxCell>
        <mxCell id="OFbxckXXqnCaUIWFsDce-93" style="edgeStyle=orthogonalEdgeStyle;rounded=0;orthogonalLoop=1;jettySize=auto;html=1;entryX=1;entryY=0.5;entryDx=0;entryDy=0;" edge="1" parent="1" source="OFbxckXXqnCaUIWFsDce-37" target="OFbxckXXqnCaUIWFsDce-61">
          <mxGeometry relative="1" as="geometry">
            <Array as="points">
              <mxPoint x="530" y="1065" />
              <mxPoint x="530" y="705" />
            </Array>
          </mxGeometry>
        </mxCell>
        <mxCell id="OFbxckXXqnCaUIWFsDce-94" value="&lt;font style=&quot;font-size: 14px;&quot;&gt;Ejecutar las pruebas&lt;/font&gt;&lt;div&gt;&lt;font style=&quot;font-size: 14px;&quot;&gt;contra el servidor de&lt;/font&gt;&lt;/div&gt;&lt;div&gt;&lt;font style=&quot;font-size: 14px;&quot;&gt;staging&lt;/font&gt;&lt;/div&gt;" style="edgeLabel;html=1;align=center;verticalAlign=middle;resizable=0;points=[];" vertex="1" connectable="0" parent="OFbxckXXqnCaUIWFsDce-93">
          <mxGeometry x="-0.3319" y="2" relative="1" as="geometry">
            <mxPoint as="offset" />
          </mxGeometry>
        </mxCell>
        <mxCell id="OFbxckXXqnCaUIWFsDce-37" value="**nuevo Contenedor efimero**" style="rounded=1;whiteSpace=wrap;html=1;" vertex="1" parent="1">
          <mxGeometry x="350" y="1040" width="90" height="50" as="geometry" />
        </mxCell>
        <mxCell id="OFbxckXXqnCaUIWFsDce-75" value="&lt;font style=&quot;font-size: 14px;&quot;&gt;Dockerhub&lt;/font&gt;" style="text;html=1;align=center;verticalAlign=middle;whiteSpace=wrap;rounded=0;" vertex="1" parent="1">
          <mxGeometry x="233" y="1270" width="87" height="40" as="geometry" />
        </mxCell>
        <mxCell id="OFbxckXXqnCaUIWFsDce-76" value="Imagen docker con dependencias necesarias para pruebas" style="rounded=1;whiteSpace=wrap;html=1;" vertex="1" parent="1">
          <mxGeometry x="243" y="1320" width="111" height="70" as="geometry" />
        </mxCell>
        <mxCell id="OFbxckXXqnCaUIWFsDce-80" value="&lt;font style=&quot;font-size: 14px;&quot;&gt;4&lt;/font&gt;" style="ellipse;whiteSpace=wrap;html=1;aspect=fixed;fillColor=light-dark(#FFFFFF,#000033);" vertex="1" parent="1">
          <mxGeometry x="490" y="1200" width="36" height="36" as="geometry" />
        </mxCell>
        <mxCell id="OFbxckXXqnCaUIWFsDce-86" value="" style="whiteSpace=wrap;html=1;shape=mxgraph.basic.document" vertex="1" parent="1">
          <mxGeometry x="-46" y="715" width="60" height="25" as="geometry" />
        </mxCell>
        <mxCell id="OFbxckXXqnCaUIWFsDce-87" value="&lt;span style=&quot;font-size: 11px;&quot;&gt;dockerCompose-staging.yaml&lt;/span&gt;" style="text;html=1;align=left;verticalAlign=middle;whiteSpace=wrap;rounded=0;" vertex="1" parent="1">
          <mxGeometry x="-46" y="680" width="66" height="25" as="geometry" />
        </mxCell>
        <mxCell id="OFbxckXXqnCaUIWFsDce-88" value="" style="whiteSpace=wrap;html=1;shape=mxgraph.basic.document" vertex="1" parent="1">
          <mxGeometry x="38" y="730" width="60" height="25" as="geometry" />
        </mxCell>
        <mxCell id="OFbxckXXqnCaUIWFsDce-89" value="&lt;span style=&quot;font-size: 11px;&quot;&gt;dockerCompose-prod.yaml&lt;/span&gt;" style="text;html=1;align=left;verticalAlign=middle;whiteSpace=wrap;rounded=0;" vertex="1" parent="1">
          <mxGeometry x="34" y="705" width="86" height="10" as="geometry" />
        </mxCell>
        <mxCell id="OFbxckXXqnCaUIWFsDce-90" value="&lt;font style=&quot;font-size: 14px;&quot;&gt;5&lt;/font&gt;" style="ellipse;whiteSpace=wrap;html=1;aspect=fixed;fillColor=light-dark(#FFFFFF,#000033);" vertex="1" parent="1">
          <mxGeometry x="344" y="799.5" width="36" height="36" as="geometry" />
        </mxCell>
        <mxCell id="OFbxckXXqnCaUIWFsDce-95" value="&lt;font style=&quot;font-size: 14px;&quot;&gt;6&lt;/font&gt;" style="ellipse;whiteSpace=wrap;html=1;aspect=fixed;fillColor=light-dark(#FFFFFF,#000033);" vertex="1" parent="1">
          <mxGeometry x="570" y="957" width="36" height="36" as="geometry" />
        </mxCell>
        <mxCell id="OFbxckXXqnCaUIWFsDce-96" value="" style="rounded=1;whiteSpace=wrap;html=1;" vertex="1" parent="1">
          <mxGeometry x="220" y="1490" width="150" height="40" as="geometry" />
        </mxCell>
        <mxCell id="OFbxckXXqnCaUIWFsDce-97" value="&lt;span style=&quot;font-size: 14px;&quot;&gt;Correo Electronico&lt;/span&gt;" style="text;html=1;align=center;verticalAlign=middle;whiteSpace=wrap;rounded=0;" vertex="1" parent="1">
          <mxGeometry x="223" y="1450" width="127" height="40" as="geometry" />
        </mxCell>
        <mxCell id="OFbxckXXqnCaUIWFsDce-98" style="edgeStyle=orthogonalEdgeStyle;rounded=0;orthogonalLoop=1;jettySize=auto;html=1;entryX=1;entryY=0.5;entryDx=0;entryDy=0;exitX=1;exitY=0.75;exitDx=0;exitDy=0;" edge="1" parent="1" source="OFbxckXXqnCaUIWFsDce-37" target="OFbxckXXqnCaUIWFsDce-96">
          <mxGeometry relative="1" as="geometry">
            <Array as="points">
              <mxPoint x="440" y="1080" />
              <mxPoint x="550" y="1080" />
              <mxPoint x="550" y="1510" />
            </Array>
          </mxGeometry>
        </mxCell>
        <mxCell id="OFbxckXXqnCaUIWFsDce-99" value="&lt;font style=&quot;font-size: 14px;&quot;&gt;Enviar reporte de&lt;/font&gt;&lt;div&gt;&lt;font style=&quot;font-size: 14px;&quot;&gt;resultado de pruebas&lt;/font&gt;&lt;/div&gt;&lt;div&gt;&lt;font style=&quot;font-size: 14px;&quot;&gt;ejecutadas&lt;/font&gt;&lt;/div&gt;" style="edgeLabel;html=1;align=center;verticalAlign=middle;resizable=0;points=[];" vertex="1" connectable="0" parent="OFbxckXXqnCaUIWFsDce-98">
          <mxGeometry x="0.2221" y="-3" relative="1" as="geometry">
            <mxPoint y="1" as="offset" />
          </mxGeometry>
        </mxCell>
        <mxCell id="OFbxckXXqnCaUIWFsDce-100" value="&lt;font style=&quot;font-size: 14px;&quot;&gt;7&lt;/font&gt;" style="ellipse;whiteSpace=wrap;html=1;aspect=fixed;fillColor=light-dark(#FFFFFF,#000033);" vertex="1" parent="1">
          <mxGeometry x="444" y="1414" width="36" height="36" as="geometry" />
        </mxCell>
        <mxCell id="OFbxckXXqnCaUIWFsDce-101" value="&lt;font style=&quot;font-size: 14px;&quot;&gt;Agente Cloud (Servidor)&lt;/font&gt;" style="text;html=1;align=center;verticalAlign=middle;whiteSpace=wrap;rounded=0;" vertex="1" parent="1">
          <mxGeometry x="314" y="988" width="162" height="40" as="geometry" />
        </mxCell>
        <mxCell id="OFbxckXXqnCaUIWFsDce-102" value="&lt;font style=&quot;font-size: 14px;&quot;&gt;Servidor de Staging&lt;/font&gt;" style="text;html=1;align=center;verticalAlign=middle;whiteSpace=wrap;rounded=0;" vertex="1" parent="1">
          <mxGeometry x="160" y="650" width="170" height="40" as="geometry" />
        </mxCell>
        <mxCell id="OFbxckXXqnCaUIWFsDce-103" value="&lt;font style=&quot;font-size: 14px;&quot;&gt;Servidor de Produccion&lt;/font&gt;" style="text;html=1;align=center;verticalAlign=middle;whiteSpace=wrap;rounded=0;" vertex="1" parent="1">
          <mxGeometry x="335" y="497" width="170" height="40" as="geometry" />
        </mxCell>
      </root>
    </mxGraphModel>
  </diagram>
</mxfile>
